<?xml version="1.0" encoding="us-ascii" standalone="no"?><svg xmlns="http://www.w3.org/2000/svg" xmlns:xlink="http://www.w3.org/1999/xlink" contentStyleType="text/css" height="516px" preserveAspectRatio="none" style="width:612px;height:516px;;" version="1.1" viewBox="0 0 612 516" width="612px" zoomAndPan="magnify"><defs/><g><line style="stroke:#181818;stroke-width:0.5;stroke-dasharray:5.0,5.0;" x1="34" x2="34" y1="81.2969" y2="435.7578"/><line style="stroke:#181818;stroke-width:0.5;stroke-dasharray:5.0,5.0;" x1="316.5" x2="316.5" y1="81.2969" y2="435.7578"/><line style="stroke:#181818;stroke-width:0.5;stroke-dasharray:5.0,5.0;" x1="554" x2="554" y1="81.2969" y2="435.7578"/><text fill="#000000" font-family="sans-serif" font-size="14" lengthAdjust="spacing" textLength="52" x="5" y="77.9951">Usuario</text><ellipse cx="34" cy="13.5" fill="#E2E2F0" rx="8" ry="8" style="stroke:#181818;stroke-width:0.5;"/><path d="M34,21.5 L34,48.5 M21,29.5 L47,29.5 M34,48.5 L21,63.5 M34,48.5 L47,63.5 " fill="none" style="stroke:#181818;stroke-width:0.5;"/><text fill="#000000" font-family="sans-serif" font-size="14" lengthAdjust="spacing" textLength="52" x="5" y="447.7529">Usuario</text><ellipse cx="34" cy="459.5547" fill="#E2E2F0" rx="8" ry="8" style="stroke:#181818;stroke-width:0.5;"/><path d="M34,467.5547 L34,494.5547 M21,475.5547 L47,475.5547 M34,494.5547 L21,509.5547 M34,494.5547 L47,509.5547 " fill="none" style="stroke:#181818;stroke-width:0.5;"/><rect fill="#E2E2F0" height="30.2969" rx="2.5" ry="2.5" style="stroke:#181818;stroke-width:0.5;" width="69" x="282.5" y="50"/><text fill="#000000" font-family="sans-serif" font-size="14" lengthAdjust="spacing" textLength="55" x="289.5" y="69.9951">Sistema</text><rect fill="#E2E2F0" height="30.2969" rx="2.5" ry="2.5" style="stroke:#181818;stroke-width:0.5;" width="69" x="282.5" y="434.7578"/><text fill="#000000" font-family="sans-serif" font-size="14" lengthAdjust="spacing" textLength="55" x="289.5" y="454.7529">Sistema</text><rect fill="#E2E2F0" height="30.2969" rx="2.5" ry="2.5" style="stroke:#181818;stroke-width:0.5;" width="92" x="508" y="50"/><text fill="#000000" font-family="sans-serif" font-size="14" lengthAdjust="spacing" textLength="78" x="515" y="69.9951">DynamoDB</text><rect fill="#E2E2F0" height="30.2969" rx="2.5" ry="2.5" style="stroke:#181818;stroke-width:0.5;" width="92" x="508" y="434.7578"/><text fill="#000000" font-family="sans-serif" font-size="14" lengthAdjust="spacing" textLength="78" x="515" y="454.7529">DynamoDB</text><rect fill="#EEEEEE" height="3" style="stroke:#EEEEEE;stroke-width:1.0;" width="605" x="0" y="111.8633"/><line style="stroke:#000000;stroke-width:1.0;" x1="0" x2="605" y1="111.8633" y2="111.8633"/><line style="stroke:#000000;stroke-width:1.0;" x1="0" x2="605" y1="114.8633" y2="114.8633"/><rect fill="#EEEEEE" height="23.1328" style="stroke:#000000;stroke-width:2.0;" width="154" x="225.5" y="101.2969"/><text fill="#000000" font-family="sans-serif" font-size="13" font-weight="bold" lengthAdjust="spacing" textLength="135" x="231.5" y="117.3638">Gera&#231;&#227;o de Senha</text><polygon fill="#181818" points="305,166.6953,315,170.6953,305,174.6953,309,170.6953" style="stroke:#181818;stroke-width:1.0;"/><line style="stroke:#181818;stroke-width:1.0;" x1="34" x2="311" y1="170.6953" y2="170.6953"/><text fill="#000000" font-family="sans-serif" font-size="13" lengthAdjust="spacing" textLength="170" x="41" y="150.4966">Solicitar gera&#231;&#227;o de senha</text><text fill="#000000" font-family="sans-serif" font-size="13" lengthAdjust="spacing" textLength="250" x="41" y="165.6294">(remaining-queries = 2, deadline = 2d)</text><polygon fill="#181818" points="542,195.8281,552,199.8281,542,203.8281,546,199.8281" style="stroke:#181818;stroke-width:1.0;"/><line style="stroke:#181818;stroke-width:1.0;" x1="317" x2="548" y1="199.8281" y2="199.8281"/><text fill="#000000" font-family="sans-serif" font-size="13" lengthAdjust="spacing" textLength="141" x="324" y="194.7622">Gerar URL para senha</text><polygon fill="#181818" points="328,224.9609,318,228.9609,328,232.9609,324,228.9609" style="stroke:#181818;stroke-width:1.0;"/><line style="stroke:#181818;stroke-width:1.0;" x1="322" x2="553" y1="228.9609" y2="228.9609"/><text fill="#000000" font-family="sans-serif" font-size="13" lengthAdjust="spacing" textLength="147" x="334" y="223.895">Retornar URL da senha</text><polygon fill="#181818" points="45,254.0938,35,258.0938,45,262.0938,41,258.0938" style="stroke:#181818;stroke-width:1.0;"/><line style="stroke:#181818;stroke-width:1.0;" x1="39" x2="316" y1="258.0938" y2="258.0938"/><text fill="#000000" font-family="sans-serif" font-size="13" lengthAdjust="spacing" textLength="182" x="51" y="253.0278">Enviar URL para visualiza&#231;&#227;o</text><rect fill="#EEEEEE" height="3" style="stroke:#EEEEEE;stroke-width:1.0;" width="605" x="0" y="286.6602"/><line style="stroke:#000000;stroke-width:1.0;" x1="0" x2="605" y1="286.6602" y2="286.6602"/><line style="stroke:#000000;stroke-width:1.0;" x1="0" x2="605" y1="289.6602" y2="289.6602"/><rect fill="#EEEEEE" height="23.1328" style="stroke:#000000;stroke-width:2.0;" width="197" x="204" y="276.0938"/><text fill="#000000" font-family="sans-serif" font-size="13" font-weight="bold" lengthAdjust="spacing" textLength="178" x="210" y="292.1606">Acesso 01 (ap&#243;s 4 dias)</text><polygon fill="#181818" points="305,326.3594,315,330.3594,305,334.3594,309,330.3594" style="stroke:#181818;stroke-width:1.0;"/><line style="stroke:#181818;stroke-width:1.0;" x1="34" x2="311" y1="330.3594" y2="330.3594"/><text fill="#000000" font-family="sans-serif" font-size="13" lengthAdjust="spacing" textLength="167" x="41" y="325.2935">Acessar URL (ap&#243;s 4 dias)</text><polygon fill="#181818" points="542,355.4922,552,359.4922,542,363.4922,546,359.4922" style="stroke:#181818;stroke-width:1.0;"/><line style="stroke:#181818;stroke-width:1.0;" x1="317" x2="548" y1="359.4922" y2="359.4922"/><text fill="#000000" font-family="sans-serif" font-size="13" lengthAdjust="spacing" textLength="213" x="324" y="354.4263">Verificar disponibilidade da senha</text><polygon fill="#181818" points="328,384.625,318,388.625,328,392.625,324,388.625" style="stroke:#181818;stroke-width:1.0;"/><line style="stroke:#181818;stroke-width:1.0;" x1="322" x2="553" y1="388.625" y2="388.625"/><text fill="#000000" font-family="sans-serif" font-size="13" lengthAdjust="spacing" textLength="185" x="334" y="383.5591">Senha j&#225; deletada (expirada)</text><polygon fill="#181818" points="45,413.7578,35,417.7578,45,421.7578,41,417.7578" style="stroke:#181818;stroke-width:1.0;"/><line style="stroke:#181818;stroke-width:1.0;" x1="39" x2="316" y1="417.7578" y2="417.7578"/><text fill="#000000" font-family="sans-serif" font-size="13" lengthAdjust="spacing" textLength="259" x="51" y="412.6919">Mostrar mensagem "Senha indispon&#237;vel"</text><!--SRC=[VP4zJiGm48LxdsAqLIAn4Y2gI442BQA1PYEeQ8PuDWnAx61x8-0sY8AAYYFaOap-f4HQwFppvlDxpvW7w-3Exz6nLJMwm3dNQ09ax0DLk3ZRl1cixEPIgJI5QtBOVhMV5ZH1HkO98KtLY8Br-KH88BEb408wAEOplfjvC94J4HisnVfbJux9GmgdHw90NRAXRgTZDT8wy6GZwJs8_UqDY4qSY6gwNdZOaWGrerXFqXbqD9x0bMbu3crORaf-7uptqIzoyjx2yGb4MBS_7iv0C_huhm9w_SXSJXoETIyrx3YN2Ss-jeOVkMIDqfd-D-Jm2y_jXvHNKa1HH_HQivDLV33ihVMXgx0Yux6W2bO3WytmSllTKBdw1G00]--></g></svg>