<?xml version="1.0" encoding="us-ascii" standalone="no"?><svg xmlns="http://www.w3.org/2000/svg" xmlns:xlink="http://www.w3.org/1999/xlink" contentStyleType="text/css" height="894px" preserveAspectRatio="none" style="width:781px;height:894px;;" version="1.1" viewBox="0 0 781 894" width="781px" zoomAndPan="magnify"><defs/><g><line style="stroke:#181818;stroke-width:0.5;stroke-dasharray:5.0,5.0;" x1="34" x2="34" y1="81.2969" y2="813.3516"/><line style="stroke:#181818;stroke-width:0.5;stroke-dasharray:5.0,5.0;" x1="316.5" x2="316.5" y1="81.2969" y2="813.3516"/><line style="stroke:#181818;stroke-width:0.5;stroke-dasharray:5.0,5.0;" x1="723" x2="723" y1="81.2969" y2="813.3516"/><text fill="#000000" font-family="sans-serif" font-size="14" lengthAdjust="spacing" textLength="52" x="5" y="77.9951">Usuario</text><ellipse cx="34" cy="13.5" fill="#E2E2F0" rx="8" ry="8" style="stroke:#181818;stroke-width:0.5;"/><path d="M34,21.5 L34,48.5 M21,29.5 L47,29.5 M34,48.5 L21,63.5 M34,48.5 L47,63.5 " fill="none" style="stroke:#181818;stroke-width:0.5;"/><text fill="#000000" font-family="sans-serif" font-size="14" lengthAdjust="spacing" textLength="52" x="5" y="825.3467">Usuario</text><ellipse cx="34" cy="837.1484" fill="#E2E2F0" rx="8" ry="8" style="stroke:#181818;stroke-width:0.5;"/><path d="M34,845.1484 L34,872.1484 M21,853.1484 L47,853.1484 M34,872.1484 L21,887.1484 M34,872.1484 L47,887.1484 " fill="none" style="stroke:#181818;stroke-width:0.5;"/><rect fill="#E2E2F0" height="30.2969" rx="2.5" ry="2.5" style="stroke:#181818;stroke-width:0.5;" width="69" x="282.5" y="50"/><text fill="#000000" font-family="sans-serif" font-size="14" lengthAdjust="spacing" textLength="55" x="289.5" y="69.9951">Sistema</text><rect fill="#E2E2F0" height="30.2969" rx="2.5" ry="2.5" style="stroke:#181818;stroke-width:0.5;" width="69" x="282.5" y="812.3516"/><text fill="#000000" font-family="sans-serif" font-size="14" lengthAdjust="spacing" textLength="55" x="289.5" y="832.3467">Sistema</text><rect fill="#E2E2F0" height="30.2969" rx="2.5" ry="2.5" style="stroke:#181818;stroke-width:0.5;" width="92" x="677" y="50"/><text fill="#000000" font-family="sans-serif" font-size="14" lengthAdjust="spacing" textLength="78" x="684" y="69.9951">DynamoDB</text><rect fill="#E2E2F0" height="30.2969" rx="2.5" ry="2.5" style="stroke:#181818;stroke-width:0.5;" width="92" x="677" y="812.3516"/><text fill="#000000" font-family="sans-serif" font-size="14" lengthAdjust="spacing" textLength="78" x="684" y="832.3467">DynamoDB</text><rect fill="#EEEEEE" height="3" style="stroke:#EEEEEE;stroke-width:1.0;" width="774" x="0" y="111.8633"/><line style="stroke:#000000;stroke-width:1.0;" x1="0" x2="774" y1="111.8633" y2="111.8633"/><line style="stroke:#000000;stroke-width:1.0;" x1="0" x2="774" y1="114.8633" y2="114.8633"/><rect fill="#EEEEEE" height="23.1328" style="stroke:#000000;stroke-width:2.0;" width="154" x="310" y="101.2969"/><text fill="#000000" font-family="sans-serif" font-size="13" font-weight="bold" lengthAdjust="spacing" textLength="135" x="316" y="117.3638">Gera&#231;&#227;o de Senha</text><polygon fill="#181818" points="305,166.6953,315,170.6953,305,174.6953,309,170.6953" style="stroke:#181818;stroke-width:1.0;"/><line style="stroke:#181818;stroke-width:1.0;" x1="34" x2="311" y1="170.6953" y2="170.6953"/><text fill="#000000" font-family="sans-serif" font-size="13" lengthAdjust="spacing" textLength="170" x="41" y="150.4966">Solicitar gera&#231;&#227;o de senha</text><text fill="#000000" font-family="sans-serif" font-size="13" lengthAdjust="spacing" textLength="249" x="41" y="165.6294">(remaining-queries = 2, deadline = 2s)</text><polygon fill="#181818" points="711,195.8281,721,199.8281,711,203.8281,715,199.8281" style="stroke:#181818;stroke-width:1.0;"/><line style="stroke:#181818;stroke-width:1.0;" x1="317" x2="717" y1="199.8281" y2="199.8281"/><text fill="#000000" font-family="sans-serif" font-size="13" lengthAdjust="spacing" textLength="141" x="324" y="194.7622">Gerar URL para senha</text><polygon fill="#181818" points="328,224.9609,318,228.9609,328,232.9609,324,228.9609" style="stroke:#181818;stroke-width:1.0;"/><line style="stroke:#181818;stroke-width:1.0;" x1="322" x2="722" y1="228.9609" y2="228.9609"/><text fill="#000000" font-family="sans-serif" font-size="13" lengthAdjust="spacing" textLength="147" x="334" y="223.895">Retornar URL da senha</text><polygon fill="#181818" points="45,254.0938,35,258.0938,45,262.0938,41,258.0938" style="stroke:#181818;stroke-width:1.0;"/><line style="stroke:#181818;stroke-width:1.0;" x1="39" x2="316" y1="258.0938" y2="258.0938"/><text fill="#000000" font-family="sans-serif" font-size="13" lengthAdjust="spacing" textLength="182" x="51" y="253.0278">Enviar URL para visualiza&#231;&#227;o</text><rect fill="#EEEEEE" height="3" style="stroke:#EEEEEE;stroke-width:1.0;" width="774" x="0" y="286.6602"/><line style="stroke:#000000;stroke-width:1.0;" x1="0" x2="774" y1="286.6602" y2="286.6602"/><line style="stroke:#000000;stroke-width:1.0;" x1="0" x2="774" y1="289.6602" y2="289.6602"/><rect fill="#EEEEEE" height="23.1328" style="stroke:#000000;stroke-width:2.0;" width="85" x="344.5" y="276.0938"/><text fill="#000000" font-family="sans-serif" font-size="13" font-weight="bold" lengthAdjust="spacing" textLength="66" x="350.5" y="292.1606">Acesso 1</text><polygon fill="#181818" points="305,326.3594,315,330.3594,305,334.3594,309,330.3594" style="stroke:#181818;stroke-width:1.0;"/><line style="stroke:#181818;stroke-width:1.0;" x1="34" x2="311" y1="330.3594" y2="330.3594"/><text fill="#000000" font-family="sans-serif" font-size="13" lengthAdjust="spacing" textLength="80" x="41" y="325.2935">Acessar URL</text><polygon fill="#181818" points="711,355.4922,721,359.4922,711,363.4922,715,359.4922" style="stroke:#181818;stroke-width:1.0;"/><line style="stroke:#181818;stroke-width:1.0;" x1="317" x2="717" y1="359.4922" y2="359.4922"/><text fill="#000000" font-family="sans-serif" font-size="13" lengthAdjust="spacing" textLength="213" x="324" y="354.4263">Verificar disponibilidade da senha</text><polygon fill="#181818" points="328,384.625,318,388.625,328,392.625,324,388.625" style="stroke:#181818;stroke-width:1.0;"/><line style="stroke:#181818;stroke-width:1.0;" x1="322" x2="722" y1="388.625" y2="388.625"/><text fill="#000000" font-family="sans-serif" font-size="13" lengthAdjust="spacing" textLength="108" x="334" y="383.5591">Senha dispon&#237;vel</text><polygon fill="#181818" points="45,413.7578,35,417.7578,45,421.7578,41,417.7578" style="stroke:#181818;stroke-width:1.0;"/><line style="stroke:#181818;stroke-width:1.0;" x1="39" x2="316" y1="417.7578" y2="417.7578"/><text fill="#000000" font-family="sans-serif" font-size="13" lengthAdjust="spacing" textLength="92" x="51" y="412.6919">Mostrar senha</text><polygon fill="#181818" points="711,442.8906,721,446.8906,711,450.8906,715,446.8906" style="stroke:#181818;stroke-width:1.0;"/><line style="stroke:#181818;stroke-width:1.0;" x1="317" x2="717" y1="446.8906" y2="446.8906"/><text fill="#000000" font-family="sans-serif" font-size="13" lengthAdjust="spacing" textLength="382" x="324" y="441.8247">Atualizar contador de visualiza&#231;&#245;es (remaining-queries = 1)</text><rect fill="#EEEEEE" height="3" style="stroke:#EEEEEE;stroke-width:1.0;" width="774" x="0" y="475.457"/><line style="stroke:#000000;stroke-width:1.0;" x1="0" x2="774" y1="475.457" y2="475.457"/><line style="stroke:#000000;stroke-width:1.0;" x1="0" x2="774" y1="478.457" y2="478.457"/><rect fill="#EEEEEE" height="23.1328" style="stroke:#000000;stroke-width:2.0;" width="85" x="344.5" y="464.8906"/><text fill="#000000" font-family="sans-serif" font-size="13" font-weight="bold" lengthAdjust="spacing" textLength="66" x="350.5" y="480.9575">Acesso 2</text><polygon fill="#181818" points="305,515.1563,315,519.1563,305,523.1563,309,519.1563" style="stroke:#181818;stroke-width:1.0;"/><line style="stroke:#181818;stroke-width:1.0;" x1="34" x2="311" y1="519.1563" y2="519.1563"/><text fill="#000000" font-family="sans-serif" font-size="13" lengthAdjust="spacing" textLength="80" x="41" y="514.0903">Acessar URL</text><polygon fill="#181818" points="711,544.2891,721,548.2891,711,552.2891,715,548.2891" style="stroke:#181818;stroke-width:1.0;"/><line style="stroke:#181818;stroke-width:1.0;" x1="317" x2="717" y1="548.2891" y2="548.2891"/><text fill="#000000" font-family="sans-serif" font-size="13" lengthAdjust="spacing" textLength="213" x="324" y="543.2231">Verificar disponibilidade da senha</text><polygon fill="#181818" points="328,573.4219,318,577.4219,328,581.4219,324,577.4219" style="stroke:#181818;stroke-width:1.0;"/><line style="stroke:#181818;stroke-width:1.0;" x1="322" x2="722" y1="577.4219" y2="577.4219"/><text fill="#000000" font-family="sans-serif" font-size="13" lengthAdjust="spacing" textLength="108" x="334" y="572.356">Senha dispon&#237;vel</text><polygon fill="#181818" points="45,602.5547,35,606.5547,45,610.5547,41,606.5547" style="stroke:#181818;stroke-width:1.0;"/><line style="stroke:#181818;stroke-width:1.0;" x1="39" x2="316" y1="606.5547" y2="606.5547"/><text fill="#000000" font-family="sans-serif" font-size="13" lengthAdjust="spacing" textLength="92" x="51" y="601.4888">Mostrar senha</text><polygon fill="#181818" points="711,631.6875,721,635.6875,711,639.6875,715,635.6875" style="stroke:#181818;stroke-width:1.0;"/><line style="stroke:#181818;stroke-width:1.0;" x1="317" x2="717" y1="635.6875" y2="635.6875"/><text fill="#000000" font-family="sans-serif" font-size="13" lengthAdjust="spacing" textLength="382" x="324" y="630.6216">Atualizar contador de visualiza&#231;&#245;es (remaining-queries = 0)</text><rect fill="#EEEEEE" height="3" style="stroke:#EEEEEE;stroke-width:1.0;" width="774" x="0" y="664.2539"/><line style="stroke:#000000;stroke-width:1.0;" x1="0" x2="774" y1="664.2539" y2="664.2539"/><line style="stroke:#000000;stroke-width:1.0;" x1="0" x2="774" y1="667.2539" y2="667.2539"/><rect fill="#EEEEEE" height="23.1328" style="stroke:#000000;stroke-width:2.0;" width="85" x="344.5" y="653.6875"/><text fill="#000000" font-family="sans-serif" font-size="13" font-weight="bold" lengthAdjust="spacing" textLength="66" x="350.5" y="669.7544">Acesso 3</text><polygon fill="#181818" points="305,703.9531,315,707.9531,305,711.9531,309,707.9531" style="stroke:#181818;stroke-width:1.0;"/><line style="stroke:#181818;stroke-width:1.0;" x1="34" x2="311" y1="707.9531" y2="707.9531"/><text fill="#000000" font-family="sans-serif" font-size="13" lengthAdjust="spacing" textLength="80" x="41" y="702.8872">Acessar URL</text><polygon fill="#181818" points="711,733.0859,721,737.0859,711,741.0859,715,737.0859" style="stroke:#181818;stroke-width:1.0;"/><line style="stroke:#181818;stroke-width:1.0;" x1="317" x2="717" y1="737.0859" y2="737.0859"/><text fill="#000000" font-family="sans-serif" font-size="13" lengthAdjust="spacing" textLength="213" x="324" y="732.02">Verificar disponibilidade da senha</text><polygon fill="#181818" points="328,762.2188,318,766.2188,328,770.2188,324,766.2188" style="stroke:#181818;stroke-width:1.0;"/><line style="stroke:#181818;stroke-width:1.0;" x1="322" x2="722" y1="766.2188" y2="766.2188"/><text fill="#000000" font-family="sans-serif" font-size="13" lengthAdjust="spacing" textLength="119" x="334" y="761.1528">Senha indispon&#237;vel</text><polygon fill="#181818" points="45,791.3516,35,795.3516,45,799.3516,41,795.3516" style="stroke:#181818;stroke-width:1.0;"/><line style="stroke:#181818;stroke-width:1.0;" x1="39" x2="316" y1="795.3516" y2="795.3516"/><text fill="#000000" font-family="sans-serif" font-size="13" lengthAdjust="spacing" textLength="259" x="51" y="790.2856">Mostrar mensagem "Senha indispon&#237;vel"</text><!--SRC=[vPAnJiCm48RtFCMf4vMeHCiMAKX5HIomD8A9vOZTS59o3hOR2Lw7WOcH9yYBSOaJaOg0s1WOu_llp_V_DcRUMBXnUxHaeWgjfumgP0yfEQzBF3ZRF36MPdCUHKa2bzfYyzgy650QKiqF24aIzLQmE1iSOaXD8GuUBUJZ7TVktF6H5H4nSRvut6jBsa42gsDHe2g8TVlbvb7lrXeF67778FZRAn1C38xHC3vWs6e9ohrO3TAHQGyUmmNND3QjIIO5FGVmBlewqyuPM7uNk9i7ZsdkMycveqmaYbnbcEwf88LIYlenHQWvx3HljIuc4rmRvzjUlcJy15ZxaCb2PjYZaaSWFnz7VPTxcBoQvNpSmUfVTd1oqC7f7tL0_DiMIiqESrt2R69pzW40]--></g></svg>